<svg width="32" height="33" viewBox="0 0 32 33" fill="none" xmlns="http://www.w3.org/2000/svg">
<path d="M8.9422 3.84535V5.22548L10.4624 6.75742L12.256 7.81321L12.5873 5.49029L12.256 3.3278L11.3281 2.60323C10.3447 1.83554 8.9422 2.56614 8.9422 3.84535Z" fill="#C5221F"/>
<path d="M20.2129 3.3278L19.8815 5.51875L20.2129 7.81321L21.8408 6.97392L23.5267 5.22548V3.84535C23.5267 2.56614 22.1241 1.83554 21.1408 2.60323L20.2129 3.3278Z" fill="#FBBC04"/>
<path d="M9.93615 13.6796H12.2558V7.81406L8.94202 5.22632V12.6445C8.94202 13.2164 9.38689 13.6796 9.93615 13.6796Z" fill="#4285F4"/>
<path d="M20.2069 13.6796H22.5265C23.0758 13.6796 23.5207 13.2164 23.5207 12.6445V5.22632L20.2069 7.81406V13.6796Z" fill="#34A853"/>
<path d="M16.2368 6.42829L12.2603 3.323V7.80841L16.2368 10.9137L20.2133 7.80841V3.323L16.2368 6.42829Z" fill="#EA4335"/>
<path d="M11.2504 25.904L11.8698 28.0395L13.4928 29.7874C13.7123 29.6609 13.8992 29.4773 14.0306 29.2497L15.5386 26.6384C15.6699 26.4116 15.7352 26.1578 15.7352 25.904L13.4194 25.4552L11.2504 25.904Z" fill="#EA4335"/>
<path d="M10.8547 17.4509C10.6351 17.3244 10.383 17.2543 10.1202 17.2543H7.10508C6.84395 17.2543 6.58936 17.3261 6.37067 17.4509L7.02021 19.6387L8.60654 21.3229L8.61225 21.3343L10.21 19.6297L10.8547 17.4509Z" fill="#188038"/>
<path d="M5.97403 25.9043L3.66227 25.3739L1.49005 25.9043C1.49005 26.1573 1.55533 26.4102 1.68589 26.6379L3.19388 29.25C3.32526 29.4768 3.51213 29.6604 3.73163 29.7877L5.3302 28.141L5.97403 25.9043Z" fill="#1967D2"/>
<path d="M13.4647 21.5794L11.392 17.9889C11.2607 17.7613 11.0738 17.5777 10.8543 17.4512L8.61188 21.3346L11.25 25.9042H15.734C15.734 25.6505 15.6687 25.3975 15.5374 25.1698L13.4647 21.5794Z" fill="#FBBC04"/>
<path d="M11.2504 25.9045H5.97409L3.73169 29.7879C3.9512 29.9144 4.20334 29.9846 4.4661 29.9846H12.7576C13.0203 29.9846 13.2725 29.9144 13.492 29.7879L11.2504 25.9045Z" fill="#4285F4"/>
<path d="M8.6122 21.3346L6.37062 17.4512C6.15111 17.5777 5.96506 17.7604 5.83368 17.9873L1.68589 25.1723C1.55533 25.3991 1.49005 25.6521 1.49005 25.9042H5.97403L8.6122 21.3346Z" fill="#34A853"/>
<path d="M27.9714 23.3721H22.0295V24.4484H27.9714V23.3721Z" fill="white"/>
<path d="M26.4077 25.2158H22.0295V26.2922H26.4077V25.2158Z" fill="white"/>
<path d="M26.5684 19.8362L28.4549 20.1868L30.0084 19.8362L26.5684 16.4534L26.0938 18.0571L26.5684 19.8362Z" fill="#1967D2"/>
<path d="M27.9714 21.5273H22.0295V22.6037H27.9714V21.5273Z" fill="white"/>
<path d="M26.5665 19.8362V16.4534H20.9373C20.419 16.4534 19.9991 16.8662 19.9991 17.376V29.062C19.9991 29.5718 20.419 29.9846 20.9373 29.9846H29.0683C29.5867 29.9846 30.0065 29.5718 30.0065 29.062V19.8362H26.5665ZM26.2538 26.1405H22.1883V25.3717H26.2538V26.1405ZM27.8174 24.2953H22.1883V23.5265H27.8174V24.2953ZM27.8174 22.4502H22.1883V21.6814H27.8174V22.4502Z" fill="#4285F4"/>
</svg>
